<svg width="1920" height="955" xmlns="http://www.w3.org/2000/svg"><g><path d="M-18,-35L-28,41L63,-36Z" fill="#f7f9ff" stroke="#f7f9ff"/><path d="M-18,-35L63,-36L390,-119Z" fill="#eef4fc" stroke="#eef4fc"/><path d="M63,-36L-28,41L64,103Z" fill="#f3f8fe" stroke="#f3f8fe"/><path d="M63,-36L64,103L192,68Z" fill="#eef5fd" stroke="#eef5fd"/><path d="M63,-36L192,68L219,-33Z" fill="#edf3fb" stroke="#edf3fb"/><path d="M63,-36L219,-33L390,-119Z" fill="#e9f1fa" stroke="#e9f1fa"/><path d="M219,-33L192,68L383,80Z" fill="#e4eff9" stroke="#e4eff9"/><path d="M219,-33L383,80L390,-119Z" fill="#e2edf7" stroke="#e2edf7"/><path d="M390,-119L383,80L475,45Z" fill="#ddebf5" stroke="#ddebf5"/><path d="M390,-119L475,45L484,-78Z" fill="#dbeaf4" stroke="#dbeaf4"/><path d="M390,-119L484,-78L784,-56Z" fill="#d4e7f2" stroke="#d4e7f2"/><path d="M390,-119L784,-56L1182,-125Z" fill="#c3deee" stroke="#c3deee"/><path d="M484,-78L475,45L618,-41Z" fill="#d6e8f3" stroke="#d6e8f3"/><path d="M484,-78L618,-41L784,-56Z" fill="#cfe5f0" stroke="#cfe5f0"/><path d="M618,-41L475,45L722,28Z" fill="#d0e6f1" stroke="#d0e6f1"/><path d="M618,-41L722,28L784,-56Z" fill="#c9e2ef" stroke="#c9e2ef"/><path d="M784,-56L722,28L790,49Z" fill="#c4dfee" stroke="#c4dfee"/><path d="M784,-56L790,49L995,16Z" fill="#bedbed" stroke="#bedbed"/><path d="M784,-56L995,16L990,-55Z" fill="#b8d8eb" stroke="#b8d8eb"/><path d="M784,-56L990,-55L1182,-125Z" fill="#b3d5ea" stroke="#b3d5ea"/><path d="M990,-55L995,16L1145,72Z" fill="#add1e7" stroke="#add1e7"/><path d="M990,-55L1145,72L1182,-125Z" fill="#a8cde5" stroke="#a8cde5"/><path d="M1182,-125L1145,72L1269,-26Z" fill="#a0c6e1" stroke="#a0c6e1"/><path d="M1182,-125L1269,-26L1412,-42Z" fill="#98c0de" stroke="#98c0de"/><path d="M1182,-125L1412,-42L1627,-48Z" fill="#90b7d8" stroke="#90b7d8"/><path d="M1182,-125L1627,-48L1826,-79Z" fill="#87acd1" stroke="#87acd1"/><path d="M1269,-26L1145,72L1233,84Z" fill="#9cc5e1" stroke="#9cc5e1"/><path d="M1269,-26L1233,84L1429,34Z" fill="#94bedd" stroke="#94bedd"/><path d="M1269,-26L1429,34L1412,-42Z" fill="#92bada" stroke="#92bada"/><path d="M1412,-42L1429,34L1627,-48Z" fill="#8bb1d3" stroke="#8bb1d3"/><path d="M1627,-48L1429,34L1619,72Z" fill="#85abd0" stroke="#85abd0"/><path d="M1627,-48L1619,72L1775,-54Z" fill="#80a3ca" stroke="#80a3ca"/><path d="M1627,-48L1775,-54L1826,-79Z" fill="#809dc6" stroke="#809dc6"/><path d="M1775,-54L1619,72L1743,115Z" fill="#7da0c8" stroke="#7da0c8"/><path d="M1775,-54L1743,115L1833,41Z" fill="#7e9ac4" stroke="#7e9ac4"/><path d="M1775,-54L1833,41L1826,-79Z" fill="#8098c3" stroke="#8098c3"/><path d="M1826,-79L1833,41L2026,-43Z" fill="#8092bf" stroke="#8092bf"/><path d="M2026,-43L1833,41L1988,121Z" fill="#7d8ebc" stroke="#7d8ebc"/><path d="M2026,-43L1988,121L2049,176Z" fill="#7b88b8" stroke="#7b88b8"/><path d="M-28,41L-115,788L-46,245Z" fill="#d2f1ff" stroke="#d2f1ff"/><path d="M-28,41L-46,245L64,103Z" fill="#f0f9ff" stroke="#f0f9ff"/><path d="M64,103L-46,245L42,260Z" fill="#e6f7ff" stroke="#e6f7ff"/><path d="M64,103L42,260L277,198Z" fill="#e2f3fc" stroke="#e2f3fc"/><path d="M64,103L277,198L192,68Z" fill="#e4f3fb" stroke="#e4f3fb"/><path d="M192,68L277,198L383,80Z" fill="#deeff8" stroke="#deeff8"/><path d="M383,80L277,198L327,244Z" fill="#d7edf7" stroke="#d7edf7"/><path d="M383,80L327,244L480,283Z" fill="#cee9f6" stroke="#cee9f6"/><path d="M383,80L480,283L475,45Z" fill="#d3eaf4" stroke="#d3eaf4"/><path d="M475,45L480,283L698,263Z" fill="#c5e6f2" stroke="#c5e6f2"/><path d="M475,45L698,263L722,28Z" fill="#c9e5f0" stroke="#c9e5f0"/><path d="M722,28L698,263L790,49Z" fill="#c0e1ef" stroke="#c0e1ef"/><path d="M790,49L698,263L785,258Z" fill="#b7deee" stroke="#b7deee"/><path d="M790,49L785,258L1017,239Z" fill="#b0daec" stroke="#b0daec"/><path d="M790,49L1017,239L995,16Z" fill="#b1d8eb" stroke="#b1d8eb"/><path d="M995,16L1017,239L1097,172Z" fill="#a6d2e8" stroke="#a6d2e8"/><path d="M995,16L1097,172L1145,72Z" fill="#a5cfe6" stroke="#a5cfe6"/><path d="M1145,72L1097,172L1233,84Z" fill="#9dc9e3" stroke="#9dc9e3"/><path d="M1233,84L1097,172L1259,223Z" fill="#96c7e2" stroke="#96c7e2"/><path d="M1233,84L1259,223L1429,34Z" fill="#90bfdd" stroke="#90bfdd"/><path d="M1429,34L1259,223L1413,251Z" fill="#88bada" stroke="#88bada"/><path d="M1429,34L1413,251L1619,72Z" fill="#84b1d4" stroke="#84b1d4"/><path d="M1619,72L1413,251L1610,249Z" fill="#79abd0" stroke="#79abd0"/><path d="M1619,72L1610,249L1739,178Z" fill="#76a3cb" stroke="#76a3cb"/><path d="M1619,72L1739,178L1743,115Z" fill="#78a1c9" stroke="#78a1c9"/><path d="M1743,115L1739,178L1833,41Z" fill="#799bc5" stroke="#799bc5"/><path d="M1833,41L1739,178L1831,275Z" fill="#7599c3" stroke="#7599c3"/><path d="M1833,41L1831,275L1988,121Z" fill="#7793bf" stroke="#7793bf"/><path d="M1988,121L1831,275L2049,176Z" fill="#728bbb" stroke="#728bbb"/><path d="M-46,245L-115,788L-45,426Z" fill="#bae2fe" stroke="#bae2fe"/><path d="M-46,245L-45,426L45,359Z" fill="#d2f0ff" stroke="#d2f0ff"/><path d="M-46,245L45,359L42,260Z" fill="#d9f3ff" stroke="#d9f3ff"/><path d="M42,260L45,359L247,406Z" fill="#caecfc" stroke="#caecfc"/><path d="M42,260L247,406L277,198Z" fill="#ceedfb" stroke="#ceedfb"/><path d="M277,198L247,406L327,244Z" fill="#c9e9f8" stroke="#c9e9f8"/><path d="M327,244L247,406L416,411Z" fill="#bae2f7" stroke="#bae2f7"/><path d="M327,244L416,411L477,332Z" fill="#bae3f5" stroke="#bae3f5"/><path d="M327,244L477,332L480,283Z" fill="#c0e5f5" stroke="#c0e5f5"/><path d="M480,283L477,332L698,263Z" fill="#b7e1f2" stroke="#b7e1f2"/><path d="M698,263L477,332L729,427Z" fill="#a9dbf0" stroke="#a9dbf0"/><path d="M698,263L729,427L819,356Z" fill="#9fd6ee" stroke="#9fd6ee"/><path d="M698,263L819,356L785,258Z" fill="#a7d9ee" stroke="#a7d9ee"/><path d="M785,258L819,356L1017,239Z" fill="#a0d5ec" stroke="#a0d5ec"/><path d="M1017,239L819,356L1035,427Z" fill="#8fcdeb" stroke="#8fcdeb"/><path d="M1017,239L1035,427L1081,418Z" fill="#84c5e7" stroke="#84c5e7"/><path d="M1017,239L1081,418L1226,352Z" fill="#83c4e5" stroke="#83c4e5"/><path d="M1017,239L1226,352L1097,172Z" fill="#8fc8e5" stroke="#8fc8e5"/><path d="M1097,172L1226,352L1259,223Z" fill="#89c3e2" stroke="#89c3e2"/><path d="M1259,223L1226,352L1413,251Z" fill="#7cbadd" stroke="#7cbadd"/><path d="M1413,251L1226,352L1408,392Z" fill="#70b3db" stroke="#70b3db"/><path d="M1413,251L1408,392L1634,335Z" fill="#68a9d4" stroke="#68a9d4"/><path d="M1413,251L1634,335L1610,249Z" fill="#6ba7d0" stroke="#6ba7d0"/><path d="M1610,249L1634,335L1739,178Z" fill="#68a0cb" stroke="#68a0cb"/><path d="M1739,178L1634,335L1831,275Z" fill="#6799c7" stroke="#6799c7"/><path d="M1831,275L1634,335L1704,419Z" fill="#5a95c7" stroke="#5a95c7"/><path d="M1831,275L1704,419L1898,376Z" fill="#578dc3" stroke="#578dc3"/><path d="M1831,275L1898,376L1980,372Z" fill="#5a88be" stroke="#5a88be"/><path d="M1831,275L1980,372L2049,176Z" fill="#6588bc" stroke="#6588bc"/><path d="M2049,176L1980,372L2065,562Z" fill="#547bb8" stroke="#547bb8"/><path d="M-45,426L-115,788L-70,660Z" fill="#9cccf1" stroke="#9cccf1"/><path d="M-45,426L-70,660L-18,513Z" fill="#aedafa" stroke="#aedafa"/><path d="M-45,426L-18,513L45,359Z" fill="#c0e6ff" stroke="#c0e6ff"/><path d="M45,359L-18,513L184,483Z" fill="#b8e2fd" stroke="#b8e2fd"/><path d="M45,359L184,483L247,406Z" fill="#b9e2fb" stroke="#b9e2fb"/><path d="M247,406L184,483L429,581Z" fill="#a2d5f7" stroke="#a2d5f7"/><path d="M247,406L429,581L416,411Z" fill="#a2d5f6" stroke="#a2d5f6"/><path d="M416,411L429,581L552,511Z" fill="#95cdf2" stroke="#95cdf2"/><path d="M416,411L552,511L477,332Z" fill="#a4d7f4" stroke="#a4d7f4"/><path d="M477,332L552,511L729,427Z" fill="#9dd4f1" stroke="#9dd4f1"/><path d="M729,427L552,511L647,528Z" fill="#8ccbef" stroke="#8ccbef"/><path d="M729,427L647,528L835,564Z" fill="#81c4ec" stroke="#81c4ec"/><path d="M729,427L835,564L819,356Z" fill="#88c9ee" stroke="#88c9ee"/><path d="M819,356L835,564L926,517Z" fill="#7dc3ec" stroke="#7dc3ec"/><path d="M819,356L926,517L1035,427Z" fill="#80c5eb" stroke="#80c5eb"/><path d="M1035,427L926,517L1070,509Z" fill="#6fbae8" stroke="#6fbae8"/><path d="M1035,427L1070,509L1081,418Z" fill="#71bbe7" stroke="#71bbe7"/><path d="M1081,418L1070,509L1226,352Z" fill="#70b9e4" stroke="#70b9e4"/><path d="M1226,352L1070,509L1317,538Z" fill="#61afe1" stroke="#61afe1"/><path d="M1226,352L1317,538L1384,493Z" fill="#59a9dd" stroke="#59a9dd"/><path d="M1226,352L1384,493L1408,392Z" fill="#61abdb" stroke="#61abdb"/><path d="M1408,392L1384,493L1599,495Z" fill="#509dd5" stroke="#509dd5"/><path d="M1408,392L1599,495L1634,335Z" fill="#559cd0" stroke="#559cd0"/><path d="M1634,335L1599,495L1704,419Z" fill="#4c93cb" stroke="#4c93cb"/><path d="M1704,419L1599,495L1697,571Z" fill="#3c88c9" stroke="#3c88c9"/><path d="M1704,419L1697,571L1899,564Z" fill="#377dc1" stroke="#377dc1"/><path d="M1704,419L1899,564L1898,376Z" fill="#4481c2" stroke="#4481c2"/><path d="M1898,376L1899,564L1980,372Z" fill="#477cbd" stroke="#477cbd"/><path d="M1980,372L1899,564L2065,562Z" fill="#3b70b8" stroke="#3b70b8"/><path d="M-18,513L-70,660L91,656Z" fill="#9bccf3" stroke="#9bccf3"/><path d="M-18,513L91,656L127,564Z" fill="#9dcef4" stroke="#9dcef4"/><path d="M-18,513L127,564L184,483Z" fill="#a8d7f9" stroke="#a8d7f9"/><path d="M127,564L91,656L215,696Z" fill="#8cc1ed" stroke="#8cc1ed"/><path d="M127,564L215,696L184,483Z" fill="#96caf1" stroke="#96caf1"/><path d="M184,483L215,696L429,581Z" fill="#8ec5ee" stroke="#8ec5ee"/><path d="M429,581L215,696L432,664Z" fill="#7db8e6" stroke="#7db8e6"/><path d="M429,581L432,664L476,673Z" fill="#78b7e5" stroke="#78b7e5"/><path d="M429,581L476,673L552,511Z" fill="#80bfe9" stroke="#80bfe9"/><path d="M552,511L476,673L647,528Z" fill="#80c0e9" stroke="#80c0e9"/><path d="M647,528L476,673L692,665Z" fill="#71b6e4" stroke="#71b6e4"/><path d="M647,528L692,665L835,564Z" fill="#71b8e5" stroke="#71b8e5"/><path d="M835,564L692,665L836,701Z" fill="#60abde" stroke="#60abde"/><path d="M835,564L836,701L932,676Z" fill="#5aa7dc" stroke="#5aa7dc"/><path d="M835,564L932,676L926,517Z" fill="#63b0e2" stroke="#63b0e2"/><path d="M926,517L932,676L1070,509Z" fill="#60afe2" stroke="#60afe2"/><path d="M1070,509L932,676L1160,674Z" fill="#4ea1da" stroke="#4ea1da"/><path d="M1070,509L1160,674L1317,538Z" fill="#4ca0d9" stroke="#4ca0d9"/><path d="M1317,538L1160,674L1302,670Z" fill="#3a92d1" stroke="#3a92d1"/><path d="M1317,538L1302,670L1445,721Z" fill="#3088ca" stroke="#3088ca"/><path d="M1317,538L1445,721L1384,493Z" fill="#3b8fcf" stroke="#3b8fcf"/><path d="M1384,493L1445,721L1527,715Z" fill="#2a81c5" stroke="#2a81c5"/><path d="M1384,493L1527,715L1599,495Z" fill="#3689ca" stroke="#3689ca"/><path d="M1599,495L1527,715L1697,571Z" fill="#2a7dc2" stroke="#2a7dc2"/><path d="M1697,571L1527,715L1744,672Z" fill="#1d6fba" stroke="#1d6fba"/><path d="M1697,571L1744,672L1899,564Z" fill="#256eb8" stroke="#256eb8"/><path d="M1899,564L1744,672L1931,644Z" fill="#1f64b2" stroke="#1f64b2"/><path d="M1899,564L1931,644L2065,562Z" fill="#2762b0" stroke="#2762b0"/><path d="M2065,562L1931,644L2004,700Z" fill="#1e58aa" stroke="#1e58aa"/><path d="M2065,562L2004,700L2048,787Z" fill="#1a4ca3" stroke="#1a4ca3"/><path d="M-70,660L-115,788L52,819Z" fill="#8fb3e2" stroke="#8fb3e2"/><path d="M-70,660L52,819L91,656Z" fill="#8eb8e7" stroke="#8eb8e7"/><path d="M91,656L52,819L196,778Z" fill="#85aedf" stroke="#85aedf"/><path d="M91,656L196,778L215,696Z" fill="#85b3e3" stroke="#85b3e3"/><path d="M215,696L196,778L373,785Z" fill="#7ca8db" stroke="#7ca8db"/><path d="M215,696L373,785L432,664Z" fill="#7aacde" stroke="#7aacde"/><path d="M432,664L373,785L476,673Z" fill="#75abdd" stroke="#75abdd"/><path d="M476,673L373,785L471,853Z" fill="#6f9fd5" stroke="#6f9fd5"/><path d="M476,673L471,853L692,665Z" fill="#6ba4d8" stroke="#6ba4d8"/><path d="M692,665L471,853L697,873Z" fill="#6296ce" stroke="#6296ce"/><path d="M692,665L697,873L836,701Z" fill="#5c9ad2" stroke="#5c9ad2"/><path d="M836,701L697,873L811,869Z" fill="#548cc9" stroke="#548cc9"/><path d="M836,701L811,869L939,879Z" fill="#4e88c7" stroke="#4e88c7"/><path d="M836,701L939,879L932,676Z" fill="#4f92cf" stroke="#4f92cf"/><path d="M932,676L939,879L1070,798Z" fill="#4688c9" stroke="#4688c9"/><path d="M932,676L1070,798L1160,674Z" fill="#4590cf" stroke="#4590cf"/><path d="M1160,674L1070,798L1277,856Z" fill="#367cc3" stroke="#367cc3"/><path d="M1160,674L1277,856L1302,670Z" fill="#327fc5" stroke="#327fc5"/><path d="M1302,670L1277,856L1378,814Z" fill="#2971bc" stroke="#2971bc"/><path d="M1302,670L1378,814L1445,721Z" fill="#2975be" stroke="#2975be"/><path d="M1445,721L1378,814L1607,850Z" fill="#1e62b2" stroke="#1e62b2"/><path d="M1445,721L1607,850L1527,715Z" fill="#1d65b3" stroke="#1d65b3"/><path d="M1527,715L1607,850L1744,672Z" fill="#1860b0" stroke="#1860b0"/><path d="M1744,672L1607,850L1707,872Z" fill="#1252a6" stroke="#1252a6"/><path d="M1744,672L1707,872L1827,874Z" fill="#114ba2" stroke="#114ba2"/><path d="M1744,672L1827,874L1931,644Z" fill="#1753a7" stroke="#1753a7"/><path d="M1931,644L1827,874L2004,700Z" fill="#164ba2" stroke="#164ba2"/><path d="M2004,700L1827,874L2048,787Z" fill="#123f9a" stroke="#123f9a"/><path d="M-115,788L-100,1176L-44,1005Z" fill="#8189c5" stroke="#8189c5"/><path d="M-115,788L-44,1005L52,819Z" fill="#869dd4" stroke="#869dd4"/><path d="M52,819L-44,1005L131,969Z" fill="#7c8fcb" stroke="#7c8fcb"/><path d="M52,819L131,969L196,778Z" fill="#7d9ad2" stroke="#7d9ad2"/><path d="M196,778L131,969L250,985Z" fill="#748dca" stroke="#748dca"/><path d="M196,778L250,985L373,785Z" fill="#7496cf" stroke="#7496cf"/><path d="M373,785L250,985L373,987Z" fill="#6b86c5" stroke="#6b86c5"/><path d="M373,785L373,987L471,853Z" fill="#6a8dc9" stroke="#6a8dc9"/><path d="M471,853L373,987L502,932Z" fill="#6382c2" stroke="#6382c2"/><path d="M471,853L502,932L654,921Z" fill="#5f84c3" stroke="#5f84c3"/><path d="M471,853L654,921L697,873Z" fill="#5d86c4" stroke="#5d86c4"/><path d="M697,873L654,921L791,1031Z" fill="#5077ba" stroke="#5077ba"/><path d="M697,873L791,1031L811,869Z" fill="#4d78bc" stroke="#4d78bc"/><path d="M811,869L791,1031L939,879Z" fill="#4774ba" stroke="#4774ba"/><path d="M939,879L791,1031L1013,972Z" fill="#3f6bb5" stroke="#3f6bb5"/><path d="M939,879L1013,972L1070,798Z" fill="#3c74bc" stroke="#3c74bc"/><path d="M1070,798L1013,972L1159,944Z" fill="#346bb6" stroke="#346bb6"/><path d="M1070,798L1159,944L1277,856Z" fill="#2f6cb8" stroke="#2f6cb8"/><path d="M1277,856L1159,944L1294,1024Z" fill="#2359ab" stroke="#2359ab"/><path d="M1277,856L1294,1024L1435,928Z" fill="#1d53a8" stroke="#1d53a8"/><path d="M1277,856L1435,928L1378,814Z" fill="#205eaf" stroke="#205eaf"/><path d="M1378,814L1435,928L1607,850Z" fill="#1956a9" stroke="#1956a9"/><path d="M1607,850L1435,928L1527,1004Z" fill="#11469f" stroke="#11469f"/><path d="M1607,850L1527,1004L1735,968Z" fill="#0a3c99" stroke="#0a3c99"/><path d="M1607,850L1735,968L1707,872Z" fill="#0a409a" stroke="#0a409a"/><path d="M1707,872L1735,968L1827,874Z" fill="#0a3996" stroke="#0a3996"/><path d="M1827,874L1735,968L1933,991Z" fill="#072c8d" stroke="#072c8d"/><path d="M1827,874L1933,991L2048,787Z" fill="#0b2f8f" stroke="#0b2f8f"/><path d="M2048,787L1933,991L1994,1026Z" fill="#082186" stroke="#082186"/><path d="M2048,787L1994,1026L1988,1127Z" fill="#041780" stroke="#041780"/><path d="M-44,1005L-100,1176L15,1073Z" fill="#7b7bb9" stroke="#7b7bb9"/><path d="M-44,1005L15,1073L131,969Z" fill="#7780c1" stroke="#7780c1"/><path d="M131,969L15,1073L283,1161Z" fill="#6f74b8" stroke="#6f74b8"/><path d="M131,969L283,1161L250,985Z" fill="#6a74ba" stroke="#6a74ba"/><path d="M250,985L283,1161L316,1134Z" fill="#666fb1" stroke="#666fb1"/><path d="M250,985L316,1134L373,987Z" fill="#6472b7" stroke="#6472b7"/><path d="M373,987L316,1134L481,1127Z" fill="#5f6cb0" stroke="#5f6cb0"/><path d="M373,987L481,1127L502,932Z" fill="#5d72b7" stroke="#5d72b7"/><path d="M502,932L481,1127L654,921Z" fill="#5873b8" stroke="#5873b8"/><path d="M654,921L481,1127L714,1130Z" fill="#5166ae" stroke="#5166ae"/><path d="M654,921L714,1130L791,1031Z" fill="#4a67b0" stroke="#4a67b0"/><path d="M791,1031L714,1130L768,1170Z" fill="#4660a5" stroke="#4660a5"/><path d="M791,1031L768,1170L1023,1183Z" fill="#3e5ca1" stroke="#3e5ca1"/><path d="M791,1031L1023,1183L1013,972Z" fill="#3758a8" stroke="#3758a8"/><path d="M1013,972L1023,1183L1129,1174Z" fill="#2d519e" stroke="#2d519e"/><path d="M1013,972L1129,1174L1218,1079Z" fill="#274ca0" stroke="#274ca0"/><path d="M1013,972L1218,1079L1159,944Z" fill="#2956a9" stroke="#2956a9"/><path d="M1159,944L1218,1079L1294,1024Z" fill="#1f4da3" stroke="#1f4da3"/><path d="M1294,1024L1218,1079L1438,1098Z" fill="#163e99" stroke="#163e99"/><path d="M1294,1024L1438,1098L1435,928Z" fill="#13409b" stroke="#13409b"/><path d="M1435,928L1438,1098L1527,1004Z" fill="#0f3b98" stroke="#0f3b98"/><path d="M1527,1004L1438,1098L1570,1114Z" fill="#0a308e" stroke="#0a308e"/><path d="M1527,1004L1570,1114L1735,968Z" fill="#042d8e" stroke="#042d8e"/><path d="M1735,968L1570,1114L1715,1161Z" fill="#002384" stroke="#002384"/><path d="M1735,968L1715,1161L1925,1135Z" fill="#001a7d" stroke="#001a7d"/><path d="M1735,968L1925,1135L1933,991Z" fill="#011981" stroke="#011981"/><path d="M1933,991L1925,1135L1994,1026Z" fill="#000f7a" stroke="#000f7a"/><path d="M1994,1026L1925,1135L1988,1127Z" fill="#000c73" stroke="#000c73"/><path d="M-100,1176L1023,1183L768,1170Z" fill="#5467a1" stroke="#5467a1"/><path d="M-100,1176L768,1170L283,1161Z" fill="#636ea7" stroke="#636ea7"/><path d="M-100,1176L283,1161L15,1073Z" fill="#7477b1" stroke="#7477b1"/><path d="M283,1161L768,1170L481,1127Z" fill="#5769a5" stroke="#5769a5"/><path d="M283,1161L481,1127L316,1134Z" fill="#616daa" stroke="#616daa"/><path d="M481,1127L768,1170L714,1130Z" fill="#4e65a3" stroke="#4e65a3"/><path d="M1023,1183L1715,1161L1129,1174Z" fill="#18418d" stroke="#18418d"/><path d="M1129,1174L1715,1161L1570,1114Z" fill="#0c3386" stroke="#0c3386"/><path d="M1129,1174L1570,1114L1438,1098Z" fill="#123a8e" stroke="#123a8e"/><path d="M1129,1174L1438,1098L1218,1079Z" fill="#1a4395" stroke="#1a4395"/></g></svg>